<svg id="Layer_1" data-name="Layer 1" xmlns="http://www.w3.org/2000/svg" viewBox="0 0 520.59 196.84"><defs><style>.cls-1{fill:#f5f5f5;}</style></defs><rect width="520.59" height="196.84" rx="5.22"/><path class="cls-1" d="M275.07,175.72c-5.29,0-71.55-1.46-113.27,1.63-20.53,1.14-17.27,5.11-27.81,8s-42.58-3.31-67.79-10.75c-36.12-12.55-33.07-13.37-35.13-20.92-1.39-4.08,3.47-25.36,17.16-52.08C60.3,76.9,65.24,67.55,74.7,52a12.91,12.91,0,0,1,5.16-4.78c43-22,103.24-20.94,112-20.86a1,1,0,0,1,.83.56,7.07,7.07,0,0,0,3.16,2.84h79.26Z" transform="translate(-13.24 -14.08)"/><path class="cls-1" d="M272,175.72c5.29,0,71.55-1.46,113.26,1.63,20.54,1.14,17.28,5.11,27.81,8s42.59-3.31,67.8-10.75C517,162.09,513.93,161.27,516,153.72c1.39-4.08-3.48-25.36-17.16-52.08-12.07-24.74-17-34.09-26.47-49.68a13,13,0,0,0-5.16-4.78c-43-22-103.24-20.94-112-20.86a1,1,0,0,0-.83.56,7.07,7.07,0,0,1-3.16,2.84H272Z" transform="translate(-13.24 -14.08)"/></svg>