<svg version="1.1" id="Layer_1" xmlns="http://www.w3.org/2000/svg" xmlns:xlink="http://www.w3.org/1999/xlink" x="0px" y="0px"
	 width="100%" viewBox="0 0 1328 685" enable-background="new 0 0 1328 685" xml:space="preserve">
<path fill="#000003" opacity="1.000000" stroke="none" 
	d="
M789.000000,686.000000 
	C526.032593,686.000000 263.565155,686.000000 1.048863,686.000000 
	C1.048863,457.727600 1.048863,229.455154 1.048863,1.091366 
	C443.550812,1.091366 886.101624,1.091366 1328.826172,1.091366 
	C1328.826172,229.333237 1328.826172,457.666595 1328.826172,686.000000 
	C1149.121704,686.000000 969.310852,686.000000 789.000000,686.000000 
M1136.686279,217.154785 
	C1134.695679,213.545364 1133.313965,209.367355 1130.586304,206.446228 
	C1125.096069,200.566589 1118.235107,196.303543 1110.859741,193.015015 
	C1104.191650,190.041946 1097.482666,187.158707 1090.758667,184.314148 
	C1086.403687,182.471786 1082.050049,180.592773 1077.582520,179.060532 
	C1073.895386,177.795944 1070.019043,177.094254 1066.269775,175.995514 
	C1063.569580,175.204208 1060.995117,173.931808 1058.265625,173.305695 
	C1054.977051,172.551300 1051.503784,172.553574 1048.254028,171.688843 
	C1043.303101,170.371475 1038.521973,168.422089 1033.581177,167.058304 
	C1029.322388,165.882736 1024.949951,165.105865 1020.610657,164.238846 
	C1018.129333,163.743073 1015.623535,163.333572 1013.110779,163.039658 
	C1009.904541,162.664612 1006.656616,162.602966 1003.467896,162.128998 
	C994.730103,160.830261 985.946838,159.708420 977.307983,157.909805 
	C968.588013,156.094299 959.684998,155.875870 950.913879,154.412766 
	C946.006836,153.594193 940.698669,153.928741 935.509644,153.177094 
	C928.451172,152.154663 921.212952,152.404633 914.057495,152.005707 
	C910.886841,151.828934 907.729187,151.138199 904.567505,151.150833 
	C900.671814,151.166382 896.776123,151.929749 892.884094,151.898926 
	C888.322449,151.862839 883.759399,151.382111 879.207214,150.978271 
	C875.182007,150.621201 871.173340,149.799011 867.152771,149.767502 
	C864.510010,149.746796 860.792297,149.881943 859.443420,151.510574 
	C856.960022,154.509018 850.243958,158.434692 846.374878,157.836945 
	C842.679993,157.266113 838.891663,157.009399 835.152771,157.077423 
	C828.604370,157.196609 822.062195,157.925735 815.517700,157.922882 
	C808.972900,157.920013 802.430847,157.264633 795.882751,157.032928 
	C792.753235,156.922165 789.609253,157.062088 786.477600,157.210480 
	C782.565552,157.395844 778.657837,157.929092 774.751160,157.901016 
	C770.855652,157.873062 766.960022,157.041397 763.070984,157.089584 
	C756.523315,157.170654 749.980652,157.923370 743.436157,157.919952 
	C736.891357,157.916534 730.349365,157.259247 723.801147,157.034790 
	C720.676147,156.927673 717.537170,157.107819 714.408752,157.250504 
	C710.495911,157.428986 706.585510,157.911636 702.677612,157.876709 
	C698.779053,157.841888 694.881104,157.041214 690.989563,157.091370 
	C684.441833,157.175781 677.899109,157.920959 671.354675,157.916992 
	C664.809753,157.913025 658.267883,157.253860 651.719543,157.036697 
	C648.598999,156.933197 645.465149,157.155518 642.339905,157.290009 
	C638.428040,157.458359 634.516724,157.879395 630.609009,157.837540 
	C626.705933,157.795746 622.806702,157.081223 618.907410,157.096375 
	C615.012756,157.111496 611.116394,157.964569 607.227478,157.915939 
	C600.679749,157.834045 594.137085,157.072800 587.592529,157.075150 
	C581.047791,157.077515 574.505737,157.730652 567.957703,157.968857 
	C564.824036,158.082870 561.675598,157.977020 558.540771,157.827011 
	C554.632019,157.639969 550.729065,157.075867 546.825989,157.097733 
	C542.930847,157.119568 539.034851,157.961487 535.145935,157.913055 
	C528.598206,157.831497 522.050598,156.994507 515.512329,157.093536 
	C507.966614,157.207840 500.554596,158.205460 492.941132,156.236404 
	C488.408203,155.064056 486.135162,152.579971 484.296875,149.300278 
	C481.175476,149.300278 478.218018,149.095001 475.300476,149.348633 
	C470.974823,149.724686 466.692474,150.657471 462.364746,150.937943 
	C454.699188,151.434692 446.989563,152.106277 439.346100,151.731369 
	C435.450409,151.540298 431.965912,152.433350 428.288086,152.792160 
	C421.250061,153.478806 414.084930,152.740234 407.000916,153.121185 
	C402.378540,153.369751 397.828918,154.782227 393.203827,155.232300 
	C389.934814,155.550400 386.551270,154.756592 383.295380,155.128647 
	C378.749176,155.648148 374.277039,156.806519 369.766693,157.656815 
	C368.807159,157.837692 367.820526,157.880753 366.844604,157.967331 
	C364.923737,158.137695 362.999908,158.276459 361.080475,158.461166 
	C359.146179,158.647278 357.218048,158.898651 355.283051,159.076370 
	C351.422028,159.430969 347.519806,159.520645 343.704651,160.146713 
	C338.125122,161.062317 332.593445,162.291824 327.071350,163.521881 
	C325.390137,163.896362 323.839539,164.827316 322.170959,165.296600 
	C320.444519,165.782150 318.657043,166.080200 316.879333,166.348068 
	C312.350464,167.030502 307.724701,167.295044 303.299316,168.383682 
	C297.552917,169.797287 291.998138,171.970993 286.294952,173.584610 
	C281.342773,174.985733 276.200897,175.763184 271.320770,177.360062 
	C265.457397,179.278702 259.792206,181.798706 254.023239,184.011398 
	C247.273468,186.600281 239.985352,188.270020 233.875870,191.920303 
	C226.358856,196.411560 217.629852,199.593597 212.686646,207.763489 
	C209.108429,213.677399 205.039078,219.292999 201.417831,225.182480 
	C199.443863,228.392929 198.100601,231.985916 196.204880,235.250763 
	C191.391876,243.539795 186.428116,251.741318 181.521561,259.976013 
	C181.437195,260.117615 181.270432,260.219116 181.213654,260.366821 
	C178.521210,267.373413 176.302002,274.612305 172.998520,281.317047 
	C170.522324,286.342682 166.843796,290.534302 164.902161,296.183838 
	C162.027908,304.547028 157.084824,312.203125 152.968918,320.132385 
	C152.160217,321.690369 150.885162,323.027466 150.206604,324.628143 
	C147.178299,331.771759 144.416336,339.029938 141.310196,346.138397 
	C138.516129,352.532623 135.137161,358.678619 132.497833,365.131104 
	C129.820465,371.676483 127.747360,378.468201 125.382774,385.142517 
	C123.201309,391.300049 120.565994,397.333557 118.890160,403.624023 
	C116.857521,411.253815 115.254326,419.044250 114.155655,426.862183 
	C113.248901,433.314484 113.243080,439.904633 113.030632,446.439972 
	C112.836403,452.414978 115.912331,456.900482 120.578796,460.094025 
	C124.880241,463.037750 129.504913,465.557587 134.166718,467.908112 
	C136.938446,469.305695 140.077759,469.959381 143.014099,471.049133 
	C146.584610,472.374176 150.194595,473.635345 153.643753,475.234283 
	C158.135132,477.316345 162.294113,480.267883 166.936630,481.839233 
	C176.084427,484.935394 185.466568,487.339172 194.752029,490.028412 
	C197.362030,490.784363 200.024506,491.395264 202.572433,492.321594 
	C207.488251,494.108795 212.242661,496.401978 217.243423,497.877136 
	C222.877213,499.539032 228.716095,500.498810 234.451263,501.826691 
	C237.244568,502.473450 239.972595,503.441956 242.787064,503.949127 
	C248.148239,504.915161 253.606628,505.397003 258.919495,506.560303 
	C264.290894,507.736359 269.479095,509.757080 274.855621,510.898926 
	C278.103241,511.588654 281.674133,510.806946 284.895386,511.560364 
	C294.512756,513.809814 304.219543,514.577271 314.052490,515.261108 
	C321.786194,515.798950 329.415466,516.350342 337.200348,516.209778 
	C344.285553,516.081909 350.974457,515.706604 357.331360,512.251038 
	C362.375427,509.509064 367.586090,507.051819 372.829651,504.707153 
	C375.739441,503.406067 378.833160,502.472321 381.906708,501.591919 
	C386.434814,500.294830 390.960480,498.799347 395.594513,498.112061 
	C400.882629,497.327759 406.287415,497.318481 411.643524,497.007019 
	C417.675140,496.656219 423.712555,496.396912 429.740417,495.992767 
	C432.791748,495.788116 435.822662,495.132111 438.871307,495.064789 
	C445.963318,494.908203 453.062775,495.087677 460.154572,494.926300 
	C464.050446,494.837646 467.933807,494.286194 471.828461,494.029816 
	C476.701324,493.709045 481.577209,493.380066 486.457123,493.238251 
	C490.222748,493.128784 493.996521,493.331940 497.766846,493.342102 
	C501.957214,493.353394 506.156128,493.458893 510.335785,493.234375 
	C514.168762,493.028534 517.983093,492.076660 521.802185,492.097321 
	C528.345703,492.132751 534.886597,492.927185 541.428406,492.924774 
	C547.973145,492.922394 554.515259,492.268188 561.063293,492.031616 
	C564.195801,491.918457 567.343018,492.033966 570.476990,492.183533 
	C574.386658,492.370117 578.290955,492.925568 582.195068,492.901978 
	C586.090393,492.878387 589.986145,492.039307 593.875183,492.087646 
	C600.422974,492.169067 606.965576,492.925018 613.510132,492.921936 
	C620.054871,492.918884 626.597412,492.285736 633.144714,492.024231 
	C636.119690,491.905426 639.523254,491.087952 642.001282,492.206757 
	C648.193359,495.002319 654.555542,492.994324 660.787048,493.740479 
	C667.200623,494.508453 673.847412,493.072906 680.392029,493.075165 
	C686.936707,493.077454 693.479004,493.729889 700.026978,493.969299 
	C703.161499,494.083893 706.310852,493.984985 709.446350,493.834656 
	C713.354431,493.647247 717.251526,493.177063 721.160095,493.066895 
	C725.629150,492.940918 730.110901,493.220947 734.577087,493.054626 
	C738.454529,492.910248 742.316528,492.127472 746.187744,492.108368 
	C750.078247,492.089111 753.975342,492.961334 757.862915,492.912781 
	C764.410706,492.831085 770.953308,492.074677 777.497864,492.077637 
	C784.042664,492.080597 790.584778,492.736420 797.132874,492.966797 
	C800.261597,493.076843 803.401367,492.824402 806.536499,492.807953 
	C810.866089,492.785187 815.196167,492.813934 819.525757,492.851135 
	C823.420776,492.884583 827.315247,492.975586 831.210205,493.010712 
	C834.524109,493.040558 837.844055,492.907593 841.151123,493.063507 
	C845.050781,493.247314 848.934937,493.841217 852.833923,493.940521 
	C859.254700,494.104156 865.682007,494.015137 872.106567,494.028473 
	C874.757629,494.033966 877.426147,493.833801 880.056274,494.068085 
	C886.015991,494.598907 891.942688,495.596375 897.909241,495.925934 
	C903.856018,496.254395 909.836914,495.917236 915.799072,496.044556 
	C917.880005,496.089020 919.944885,496.882690 922.025940,496.927979 
	C928.320984,497.065033 934.675659,496.494293 940.901794,497.169922 
	C946.479065,497.775116 951.973755,499.471039 957.399353,501.048523 
	C962.579956,502.554718 967.735168,504.268372 972.695618,506.375519 
	C977.081909,508.238678 981.153503,510.831085 985.423096,512.984619 
	C988.585266,514.579529 991.659424,515.826050 995.571472,515.408020 
	C999.056885,515.035522 1002.712830,516.734558 1006.315369,516.853271 
	C1010.194824,516.981079 1014.095154,516.242798 1017.994629,516.049316 
	C1022.589600,515.821289 1027.225220,516.062317 1031.784424,515.562622 
	C1036.206421,515.078125 1040.538452,513.822815 1044.938965,513.076965 
	C1047.917725,512.572083 1050.941406,512.306763 1053.954102,512.034363 
	C1058.784912,511.597443 1063.686890,511.600372 1068.439697,510.750916 
	C1072.914185,509.951202 1077.189453,508.097229 1081.633423,507.051666 
	C1088.732544,505.381317 1095.899292,503.998901 1103.035156,502.483887 
	C1103.490479,502.387177 1103.916504,502.150757 1104.372314,502.058075 
	C1109.804077,500.953613 1115.294922,500.082947 1120.656982,498.709076 
	C1126.031250,497.332062 1131.249878,495.359314 1136.588257,493.826599 
	C1142.043213,492.260437 1147.659180,491.203156 1153.025513,489.392578 
	C1159.463989,487.220276 1165.689087,484.423279 1172.056030,482.028320 
	C1174.535645,481.095642 1177.187134,480.627472 1179.692139,479.752594 
	C1181.916992,478.975525 1184.033569,477.894043 1186.223511,477.009979 
	C1188.562500,476.065765 1190.993652,475.329224 1193.275635,474.268005 
	C1200.351440,470.977539 1207.212646,467.160461 1214.459351,464.318390 
	C1224.396362,460.421204 1229.474121,454.430084 1229.974243,444.294922 
	C1230.112793,441.488861 1230.320068,438.611176 1229.870850,435.868744 
	C1229.207397,431.820007 1227.779175,427.899902 1227.051880,423.857513 
	C1226.145386,418.818878 1226.062744,413.600006 1224.816895,408.662720 
	C1223.323120,402.743500 1221.059814,397.009491 1218.975952,391.250977 
	C1217.189697,386.315247 1215.169189,381.464600 1213.285889,376.563416 
	C1212.156372,373.623566 1211.165894,370.628754 1209.982178,367.711731 
	C1207.378784,361.296692 1204.717651,354.904724 1202.026245,348.526154 
	C1201.100342,346.331573 1199.954224,344.230377 1199.014038,342.041290 
	C1196.908447,337.138794 1195.081055,332.103943 1192.737915,327.320190 
	C1190.708252,323.176392 1187.884644,319.421509 1185.854248,315.277985 
	C1183.932007,311.355225 1182.802490,307.048523 1180.943726,303.089355 
	C1175.601929,291.710266 1170.843628,279.953827 1164.383545,269.233032 
	C1158.296143,259.130829 1152.631104,248.903702 1147.660522,238.240646 
	C1146.635010,236.040894 1144.995483,234.134033 1143.881470,231.967529 
	C1141.496216,227.329086 1139.269531,222.609192 1136.686279,217.154785 
z"/>
<path fill="#FFFFFF" opacity="1.000000" stroke="none" 
	d="
M1136.832031,217.538727 
	C1139.269531,222.609192 1141.496216,227.329086 1143.881470,231.967529 
	C1144.995483,234.134033 1146.635010,236.040894 1147.660522,238.240646 
	C1152.631104,248.903702 1158.296143,259.130829 1164.383545,269.233032 
	C1170.843628,279.953827 1175.601929,291.710266 1180.943726,303.089355 
	C1182.802490,307.048523 1183.932007,311.355225 1185.854248,315.277985 
	C1187.884644,319.421509 1190.708252,323.176392 1192.737915,327.320190 
	C1195.081055,332.103943 1196.908447,337.138794 1199.014038,342.041290 
	C1199.954224,344.230377 1201.100342,346.331573 1202.026245,348.526154 
	C1204.717651,354.904724 1207.378784,361.296692 1209.982178,367.711731 
	C1211.165894,370.628754 1212.156372,373.623566 1213.285889,376.563416 
	C1215.169189,381.464600 1217.189697,386.315247 1218.975952,391.250977 
	C1221.059814,397.009491 1223.323120,402.743500 1224.816895,408.662720 
	C1226.062744,413.600006 1226.145386,418.818878 1227.051880,423.857513 
	C1227.779175,427.899902 1229.207397,431.820007 1229.870850,435.868744 
	C1230.320068,438.611176 1230.112793,441.488861 1229.974243,444.294922 
	C1229.474121,454.430084 1224.396362,460.421204 1214.459351,464.318390 
	C1207.212646,467.160461 1200.351440,470.977539 1193.275635,474.268005 
	C1190.993652,475.329224 1188.562500,476.065765 1186.223511,477.009979 
	C1184.033569,477.894043 1181.916992,478.975525 1179.692139,479.752594 
	C1177.187134,480.627472 1174.535645,481.095642 1172.056030,482.028320 
	C1165.689087,484.423279 1159.463989,487.220276 1153.025513,489.392578 
	C1147.659180,491.203156 1142.043213,492.260437 1136.588257,493.826599 
	C1131.249878,495.359314 1126.031250,497.332062 1120.656982,498.709076 
	C1115.294922,500.082947 1109.804077,500.953613 1104.372314,502.058075 
	C1103.916504,502.150757 1103.490479,502.387177 1103.035156,502.483887 
	C1095.899292,503.998901 1088.732544,505.381317 1081.633423,507.051666 
	C1077.189453,508.097229 1072.914185,509.951202 1068.439697,510.750916 
	C1063.686890,511.600372 1058.784912,511.597443 1053.954102,512.034363 
	C1050.941406,512.306763 1047.917725,512.572083 1044.938965,513.076965 
	C1040.538452,513.822815 1036.206421,515.078125 1031.784424,515.562622 
	C1027.225220,516.062317 1022.589600,515.821289 1017.994629,516.049316 
	C1014.095154,516.242798 1010.194824,516.981079 1006.315369,516.853271 
	C1002.712830,516.734558 999.056885,515.035522 995.571472,515.408020 
	C991.659424,515.826050 988.585266,514.579529 985.423096,512.984619 
	C981.153503,510.831085 977.081909,508.238678 972.695618,506.375519 
	C967.735168,504.268372 962.579956,502.554718 957.399353,501.048523 
	C951.973755,499.471039 946.479065,497.775116 940.901794,497.169922 
	C934.675659,496.494293 928.320984,497.065033 922.025940,496.927979 
	C919.944885,496.882690 917.880005,496.089020 915.799072,496.044556 
	C909.836914,495.917236 903.856018,496.254395 897.909241,495.925934 
	C891.942688,495.596375 886.015991,494.598907 880.056274,494.068085 
	C877.426147,493.833801 874.757629,494.033966 872.106567,494.028473 
	C865.682007,494.015137 859.254700,494.104156 852.833923,493.940521 
	C848.934937,493.841217 845.050781,493.247314 841.151123,493.063507 
	C837.844055,492.907593 834.524109,493.040558 831.210205,493.010712 
	C827.315247,492.975586 823.420776,492.884583 819.525757,492.851135 
	C815.196167,492.813934 810.866089,492.785187 806.536499,492.807953 
	C803.401367,492.824402 800.261597,493.076843 797.132874,492.966797 
	C790.584778,492.736420 784.042664,492.080597 777.497864,492.077637 
	C770.953308,492.074677 764.410706,492.831085 757.862915,492.912781 
	C753.975342,492.961334 750.078247,492.089111 746.187744,492.108368 
	C742.316528,492.127472 738.454529,492.910248 734.577087,493.054626 
	C730.110901,493.220947 725.629150,492.940918 721.160095,493.066895 
	C717.251526,493.177063 713.354431,493.647247 709.446350,493.834656 
	C706.310852,493.984985 703.161499,494.083893 700.026978,493.969299 
	C693.479004,493.729889 686.936707,493.077454 680.392029,493.075165 
	C673.847412,493.072906 667.200623,494.508453 660.787048,493.740479 
	C654.555542,492.994324 648.193359,495.002319 642.001282,492.206757 
	C639.523254,491.087952 636.119690,491.905426 633.144714,492.024231 
	C626.597412,492.285736 620.054871,492.918884 613.510132,492.921936 
	C606.965576,492.925018 600.422974,492.169067 593.875183,492.087646 
	C589.986145,492.039307 586.090393,492.878387 582.195068,492.901978 
	C578.290955,492.925568 574.386658,492.370117 570.476990,492.183533 
	C567.343018,492.033966 564.195801,491.918457 561.063293,492.031616 
	C554.515259,492.268188 547.973145,492.922394 541.428406,492.924774 
	C534.886597,492.927185 528.345703,492.132751 521.802185,492.097321 
	C517.983093,492.076660 514.168762,493.028534 510.335785,493.234375 
	C506.156128,493.458893 501.957214,493.353394 497.766846,493.342102 
	C493.996521,493.331940 490.222748,493.128784 486.457123,493.238251 
	C481.577209,493.380066 476.701324,493.709045 471.828461,494.029816 
	C467.933807,494.286194 464.050446,494.837646 460.154572,494.926300 
	C453.062775,495.087677 445.963318,494.908203 438.871307,495.064789 
	C435.822662,495.132111 432.791748,495.788116 429.740417,495.992767 
	C423.712555,496.396912 417.675140,496.656219 411.643524,497.007019 
	C406.287415,497.318481 400.882629,497.327759 395.594513,498.112061 
	C390.960480,498.799347 386.434814,500.294830 381.906708,501.591919 
	C378.833160,502.472321 375.739441,503.406067 372.829651,504.707153 
	C367.586090,507.051819 362.375427,509.509064 357.331360,512.251038 
	C350.974457,515.706604 344.285553,516.081909 337.200348,516.209778 
	C329.415466,516.350342 321.786194,515.798950 314.052490,515.261108 
	C304.219543,514.577271 294.512756,513.809814 284.895386,511.560364 
	C281.674133,510.806946 278.103241,511.588654 274.855621,510.898926 
	C269.479095,509.757080 264.290894,507.736359 258.919495,506.560303 
	C253.606628,505.397003 248.148239,504.915161 242.787064,503.949127 
	C239.972595,503.441956 237.244568,502.473450 234.451263,501.826691 
	C228.716095,500.498810 222.877213,499.539032 217.243423,497.877136 
	C212.242661,496.401978 207.488251,494.108795 202.572433,492.321594 
	C200.024506,491.395264 197.362030,490.784363 194.752029,490.028412 
	C185.466568,487.339172 176.084427,484.935394 166.936630,481.839233 
	C162.294113,480.267883 158.135132,477.316345 153.643753,475.234283 
	C150.194595,473.635345 146.584610,472.374176 143.014099,471.049133 
	C140.077759,469.959381 136.938446,469.305695 134.166718,467.908112 
	C129.504913,465.557587 124.880241,463.037750 120.578796,460.094025 
	C115.912331,456.900482 112.836403,452.414978 113.030632,446.439972 
	C113.243080,439.904633 113.248901,433.314484 114.155655,426.862183 
	C115.254326,419.044250 116.857521,411.253815 118.890160,403.624023 
	C120.565994,397.333557 123.201309,391.300049 125.382774,385.142517 
	C127.747360,378.468201 129.820465,371.676483 132.497833,365.131104 
	C135.137161,358.678619 138.516129,352.532623 141.310196,346.138397 
	C144.416336,339.029938 147.178299,331.771759 150.206604,324.628143 
	C150.885162,323.027466 152.160217,321.690369 152.968918,320.132385 
	C157.084824,312.203125 162.027908,304.547028 164.902161,296.183838 
	C166.843796,290.534302 170.522324,286.342682 172.998520,281.317047 
	C176.302002,274.612305 178.521210,267.373413 181.213654,260.366821 
	C181.270432,260.219116 181.437195,260.117615 181.521561,259.976013 
	C186.428116,251.741318 191.391876,243.539795 196.204880,235.250763 
	C198.100601,231.985916 199.443863,228.392929 201.417831,225.182480 
	C205.039078,219.292999 209.108429,213.677399 212.686646,207.763489 
	C217.629852,199.593597 226.358856,196.411560 233.875870,191.920303 
	C239.985352,188.270020 247.273468,186.600281 254.023239,184.011398 
	C259.792206,181.798706 265.457397,179.278702 271.320770,177.360062 
	C276.200897,175.763184 281.342773,174.985733 286.294952,173.584610 
	C291.998138,171.970993 297.552917,169.797287 303.299316,168.383682 
	C307.724701,167.295044 312.350464,167.030502 316.879333,166.348068 
	C318.657043,166.080200 320.444519,165.782150 322.170959,165.296600 
	C323.839539,164.827316 325.390137,163.896362 327.071350,163.521881 
	C332.593445,162.291824 338.125122,161.062317 343.704651,160.146713 
	C347.519806,159.520645 351.422028,159.430969 355.283051,159.076370 
	C357.218048,158.898651 359.146179,158.647278 361.080475,158.461166 
	C362.999908,158.276459 364.923737,158.137695 366.844604,157.967331 
	C367.820526,157.880753 368.807159,157.837692 369.766693,157.656815 
	C374.277039,156.806519 378.749176,155.648148 383.295380,155.128647 
	C386.551270,154.756592 389.934814,155.550400 393.203827,155.232300 
	C397.828918,154.782227 402.378540,153.369751 407.000916,153.121185 
	C414.084930,152.740234 421.250061,153.478806 428.288086,152.792160 
	C431.965912,152.433350 435.450409,151.540298 439.346100,151.731369 
	C446.989563,152.106277 454.699188,151.434692 462.364746,150.937943 
	C466.692474,150.657471 470.974823,149.724686 475.300476,149.348633 
	C478.218018,149.095001 481.175476,149.300278 484.296875,149.300278 
	C486.135162,152.579971 488.408203,155.064056 492.941132,156.236404 
	C500.554596,158.205460 507.966614,157.207840 515.512329,157.093536 
	C522.050598,156.994507 528.598206,157.831497 535.145935,157.913055 
	C539.034851,157.961487 542.930847,157.119568 546.825989,157.097733 
	C550.729065,157.075867 554.632019,157.639969 558.540771,157.827011 
	C561.675598,157.977020 564.824036,158.082870 567.957703,157.968857 
	C574.505737,157.730652 581.047791,157.077515 587.592529,157.075150 
	C594.137085,157.072800 600.679749,157.834045 607.227478,157.915939 
	C611.116394,157.964569 615.012756,157.111496 618.907410,157.096375 
	C622.806702,157.081223 626.705933,157.795746 630.609009,157.837540 
	C634.516724,157.879395 638.428040,157.458359 642.339905,157.290009 
	C645.465149,157.155518 648.598999,156.933197 651.719543,157.036697 
	C658.267883,157.253860 664.809753,157.913025 671.354675,157.916992 
	C677.899109,157.920959 684.441833,157.175781 690.989563,157.091370 
	C694.881104,157.041214 698.779053,157.841888 702.677612,157.876709 
	C706.585510,157.911636 710.495911,157.428986 714.408752,157.250504 
	C717.537170,157.107819 720.676147,156.927673 723.801147,157.034790 
	C730.349365,157.259247 736.891357,157.916534 743.436157,157.919952 
	C749.980652,157.923370 756.523315,157.170654 763.070984,157.089584 
	C766.960022,157.041397 770.855652,157.873062 774.751160,157.901016 
	C778.657837,157.929092 782.565552,157.395844 786.477600,157.210480 
	C789.609253,157.062088 792.753235,156.922165 795.882751,157.032928 
	C802.430847,157.264633 808.972900,157.920013 815.517700,157.922882 
	C822.062195,157.925735 828.604370,157.196609 835.152771,157.077423 
	C838.891663,157.009399 842.679993,157.266113 846.374878,157.836945 
	C850.243958,158.434692 856.960022,154.509018 859.443420,151.510574 
	C860.792297,149.881943 864.510010,149.746796 867.152771,149.767502 
	C871.173340,149.799011 875.182007,150.621201 879.207214,150.978271 
	C883.759399,151.382111 888.322449,151.862839 892.884094,151.898926 
	C896.776123,151.929749 900.671814,151.166382 904.567505,151.150833 
	C907.729187,151.138199 910.886841,151.828934 914.057495,152.005707 
	C921.212952,152.404633 928.451172,152.154663 935.509644,153.177094 
	C940.698669,153.928741 946.006836,153.594193 950.913879,154.412766 
	C959.684998,155.875870 968.588013,156.094299 977.307983,157.909805 
	C985.946838,159.708420 994.730103,160.830261 1003.467896,162.128998 
	C1006.656616,162.602966 1009.904541,162.664612 1013.110779,163.039658 
	C1015.623535,163.333572 1018.129333,163.743073 1020.610657,164.238846 
	C1024.949951,165.105865 1029.322388,165.882736 1033.581177,167.058304 
	C1038.521973,168.422089 1043.303101,170.371475 1048.254028,171.688843 
	C1051.503784,172.553574 1054.977051,172.551300 1058.265625,173.305695 
	C1060.995117,173.931808 1063.569580,175.204208 1066.269775,175.995514 
	C1070.019043,177.094254 1073.895386,177.795944 1077.582520,179.060532 
	C1082.050049,180.592773 1086.403687,182.471786 1090.758667,184.314148 
	C1097.482666,187.158707 1104.191650,190.041946 1110.859741,193.015015 
	C1118.235107,196.303543 1125.096069,200.566589 1130.586304,206.446228 
	C1133.313965,209.367355 1134.695679,213.545364 1136.832031,217.538727 
z"/>
</svg>